<svg width="20" height="20" viewBox="0 0 20 20" fill="none" xmlns="http://www.w3.org/2000/svg">
<path d="M16.126 19.9974C15.1582 19.9974 14.1338 19.7591 13.0738 19.5113C11.9842 19.2574 10.866 18.9939 9.75902 18.9939C8.6512 18.9939 7.56337 19.2635 6.5112 19.5243C4.34859 20.0617 2.30772 20.5704 0.561634 18.4296L0.435547 18.247L0.46859 18.0383C0.956416 14.7887 2.61989 12.1739 5.15033 10.68L5.46859 10.4922L5.72598 10.7643C6.27008 11.3557 6.93067 11.8281 7.6662 12.1518C8.40173 12.4755 9.19629 12.6435 9.99989 12.6452C11.6164 12.6452 13.1616 11.9652 14.2729 10.7643L14.526 10.4922L14.8486 10.68C17.3816 12.1783 19.0451 14.7913 19.5329 18.0374L19.566 18.2609L19.4286 18.4296C19.0434 18.9358 18.5426 19.3423 17.968 19.6151C17.3933 19.8879 16.7617 20.019 16.126 19.9974ZM9.76946 18.5591C10.9251 18.5591 12.0712 18.827 13.179 19.0878C15.5025 19.6313 17.5103 20.1017 19.0999 18.1513L19.1147 18.1339V18.113C18.646 14.9913 17.0573 12.4948 14.6399 11.0652L14.6086 11.0478L14.5851 11.0739C14.0011 11.7051 13.2932 12.2092 12.5056 12.5545C11.718 12.8998 10.8677 13.079 10.0077 13.0809C9.14768 13.0792 8.29722 12.9002 7.50949 12.555C6.72175 12.2099 6.01366 11.706 5.42946 11.0748L5.40337 11.0478L5.37294 11.0652C2.9425 12.4948 1.35294 14.9957 0.885982 18.113V18.1357L0.901634 18.153C2.47381 20.0817 4.3025 19.627 6.42163 19.1009C7.48772 18.8357 8.59555 18.5591 9.76946 18.5591ZM9.99815 11.8078C6.81033 11.8078 4.22598 9.16435 4.22598 5.90348C4.22598 2.64261 6.81033 0 9.99815 0C13.1869 0 15.7712 2.64348 15.7712 5.90435C15.7669 9.16348 13.1851 11.8043 9.99815 11.8087V11.8078ZM9.99815 0.437391C7.83555 0.437391 5.88511 1.76957 5.05902 3.81391C4.23033 5.85739 4.68859 8.21043 6.21816 9.77391C6.95672 10.5362 7.90856 11.0572 8.94866 11.2686C9.98877 11.4799 11.0685 11.3718 12.046 10.9583C14.0442 10.1113 15.3468 8.11652 15.346 5.90435C15.3434 2.88435 12.9512 0.436522 9.99815 0.432174V0.437391Z" fill="black"/>
</svg>
