<svg width="24" height="24" viewBox="0 0 24 24" fill="none" xmlns="http://www.w3.org/2000/svg">
<g clip-path="url(#clip0_249_22253)">
<path fill-rule="evenodd" clip-rule="evenodd" d="M0.156837 3.17147C0.268022 3.06161 0.41803 3 0.574337 3C0.730644 3 0.880652 3.06161 0.991837 3.17147L9.82084 11.5995C9.87721 11.6498 9.92232 11.7114 9.9532 11.7803C9.98409 11.8493 10.0001 11.9239 10.0001 11.9995C10.0001 12.075 9.98409 12.1497 9.9532 12.2186C9.92232 12.2876 9.87721 12.3492 9.82084 12.3995L1.02084 20.8275C0.909382 20.9367 0.759875 20.9984 0.603837 20.9995C0.447714 20.9988 0.298055 20.937 0.186837 20.8275C0.130466 20.7772 0.085359 20.7156 0.0544738 20.6466C0.0235886 20.5777 0.00762258 20.503 0.00762258 20.4275C0.00762258 20.3519 0.0235886 20.2773 0.0544738 20.2083C0.085359 20.1394 0.130466 20.0778 0.186837 20.0275L8.53784 11.9985L0.154837 3.96947C0.0548966 3.86031 -0.000368609 3.71758 1.85048e-06 3.56958C0.00037231 3.42158 0.0563514 3.27913 0.156837 3.17047V3.17147ZM14.1568 3.17147C14.268 3.06161 14.418 3 14.5743 3C14.7306 3 14.8807 3.06161 14.9918 3.17147L23.8208 11.5995C23.8772 11.6498 23.9223 11.7114 23.9532 11.7803C23.9841 11.8493 24.0001 11.9239 24.0001 11.9995C24.0001 12.075 23.9841 12.1497 23.9532 12.2186C23.9223 12.2876 23.8772 12.3492 23.8208 12.3995L15.0208 20.8275C14.9094 20.9367 14.7599 20.9984 14.6038 20.9995C14.4477 20.9988 14.2981 20.937 14.1868 20.8275C14.1305 20.7772 14.0854 20.7156 14.0545 20.6466C14.0236 20.5777 14.0076 20.503 14.0076 20.4275C14.0076 20.3519 14.0236 20.2773 14.0545 20.2083C14.0854 20.1394 14.1305 20.0778 14.1868 20.0275L22.5378 11.9985L14.1548 3.96947C14.0549 3.86031 13.9996 3.71758 14 3.56958C14.0004 3.42158 14.0564 3.27913 14.1568 3.17047V3.17147Z" fill="black"/>
</g>
<defs>
<clipPath id="clip0_249_22253">
<rect width="24" height="24" fill="white"/>
</clipPath>
</defs>
</svg>
