<svg width="24" height="32" viewBox="0 0 24 32" fill="none" xmlns="http://www.w3.org/2000/svg">
<path d="M17.6322 1.34259C15.9752 1.89159 14.4042 2.44659 13.2512 3.59259C12.0982 4.73859 11.4892 6.44959 11.6812 8.93159C11.7082 9.32659 12.1432 9.64259 12.5372 9.55559C14.2582 9.17559 15.9452 8.50959 17.1372 7.27359C18.3302 6.03659 18.9452 4.21659 18.5542 1.88059C18.4552 1.33859 18.0442 1.22559 17.6322 1.34259ZM7.43221 9.91059C8.29221 9.91059 9.15021 10.2736 10.0122 10.6966C10.8742 11.1186 11.7072 11.6326 12.7022 11.6326C13.8272 11.5276 14.8862 11.0466 15.7652 10.6856C16.7822 10.2716 17.8062 9.91059 18.6752 9.91059C20.2452 9.91059 21.9232 10.8966 22.9452 11.9456C21.0132 13.6256 19.3782 15.5996 19.3782 17.8336C19.3902 20.8556 21.3872 22.5086 23.4952 23.9686C23.0814 25.6753 22.2976 27.2703 21.1992 28.6406C20.0452 30.0546 18.6742 30.9226 17.6192 30.9226C16.7222 30.9226 15.9552 30.6346 15.1822 30.2986C14.4102 29.9616 13.6382 29.5446 12.7012 29.5446C11.7642 29.5446 10.9292 29.9486 10.0662 30.2876C9.20321 30.6266 8.32921 30.9226 7.43121 30.9226C7.03621 30.9226 6.30821 30.5956 5.52121 29.8676C4.73321 29.1396 3.87921 28.0536 3.11621 26.7456C1.59221 24.1286 0.405212 20.6076 0.405212 17.1446C0.339212 13.0176 3.85321 9.91759 7.43221 9.91059Z" fill="black"/>
</svg>
