<svg width="24" height="25" viewBox="0 0 24 25" fill="none" xmlns="http://www.w3.org/2000/svg">
<g clip-path="url(#clip0_158_2022)">
<path fill-rule="evenodd" clip-rule="evenodd" d="M0.156837 3.67147C0.268022 3.56161 0.41803 3.5 0.574337 3.5C0.730644 3.5 0.880652 3.56161 0.991837 3.67147L9.82084 12.0995C9.87721 12.1498 9.92232 12.2114 9.9532 12.2803C9.98409 12.3493 10.0001 12.4239 10.0001 12.4995C10.0001 12.575 9.98409 12.6497 9.9532 12.7186C9.92232 12.7876 9.87721 12.8492 9.82084 12.8995L1.02084 21.3275C0.909382 21.4367 0.759875 21.4984 0.603837 21.4995C0.447714 21.4988 0.298055 21.437 0.186837 21.3275C0.130466 21.2772 0.085359 21.2156 0.0544738 21.1466C0.0235886 21.0777 0.00762258 21.003 0.00762258 20.9275C0.00762258 20.8519 0.0235886 20.7773 0.0544738 20.7083C0.085359 20.6394 0.130466 20.5778 0.186837 20.5275L8.53784 12.4985L0.154837 4.46947C0.0548966 4.36031 -0.000368609 4.21758 1.85048e-06 4.06958C0.00037231 3.92158 0.0563514 3.77913 0.156837 3.67047V3.67147ZM14.1568 3.67147C14.268 3.56161 14.418 3.5 14.5743 3.5C14.7306 3.5 14.8807 3.56161 14.9918 3.67147L23.8208 12.0995C23.8772 12.1498 23.9223 12.2114 23.9532 12.2803C23.9841 12.3493 24.0001 12.4239 24.0001 12.4995C24.0001 12.575 23.9841 12.6497 23.9532 12.7186C23.9223 12.7876 23.8772 12.8492 23.8208 12.8995L15.0208 21.3275C14.9094 21.4367 14.7599 21.4984 14.6038 21.4995C14.4477 21.4988 14.2981 21.437 14.1868 21.3275C14.1305 21.2772 14.0854 21.2156 14.0545 21.1466C14.0236 21.0777 14.0076 21.003 14.0076 20.9275C14.0076 20.8519 14.0236 20.7773 14.0545 20.7083C14.0854 20.6394 14.1305 20.5778 14.1868 20.5275L22.5378 12.4985L14.1548 4.46947C14.0549 4.36031 13.9996 4.21758 14 4.06958C14.0004 3.92158 14.0564 3.77913 14.1568 3.67047V3.67147Z" fill="black"/>
</g>
<defs>
<clipPath id="clip0_158_2022">
<rect width="24" height="24" fill="white" transform="translate(0 0.5)"/>
</clipPath>
</defs>
</svg>
