<svg width="78" height="60" viewBox="0 0 78 60" fill="none" xmlns="http://www.w3.org/2000/svg">
<path fill-rule="evenodd" clip-rule="evenodd" d="M44.5238 42.4442L31.8145 24.9668L45.2787 41.8738C45.4335 42.0659 45.3923 42.3537 45.1861 42.5159C44.9808 42.6773 44.6896 42.6517 44.5356 42.4604C44.5312 42.4554 44.5273 42.45 44.5238 42.4442" fill="#010202"/>
<path d="M44.6082 41.7547C45.3117 42.653 45.9597 50.5412 45.9597 50.5412C45.9597 50.5412 50.5712 45.3257 51.6113 38.0121C52.6497 30.6985 51.2326 29.7208 50.0023 26.0064C48.772 22.292 43.5816 17.5034 40.9257 16.1884C39.0105 15.2406 32.8775 13.0853 29.5552 11.9403C28.3586 11.5304 27.0096 12.2067 26.5846 13.4226C24.6121 19.0737 24.2377 25.1184 25.8643 30.6832C26.8295 33.9826 28.489 37.0993 31.3274 38.626C31.3274 38.626 37.9384 41.9221 42.3403 41.0887C46.7406 40.2553 45.9311 48.6541 45.9311 48.6541" stroke="#010202" stroke-width="0.5" stroke-linecap="round" stroke-linejoin="round"/>
<path fill-rule="evenodd" clip-rule="evenodd" d="M39.6357 57.7987L36.2579 58.3896L33.1173 56.9961L29.6991 56.7493L26.9785 54.6334L23.7168 53.5634L21.5751 50.8481L18.661 49.0182L17.2211 45.8622L14.8228 43.3774L14.1698 39.9618L12.4279 36.9672L12.5987 33.4936L11.6133 30.1626L12.5979 26.8316L12.4279 23.3579L14.1698 20.3625L14.8228 16.9486L17.2211 14.4638L18.6601 11.307L21.5751 9.47625L23.7168 6.76088L26.9785 5.69181L29.6991 3.57587L33.1173 3.3291L36.2579 1.93555L39.6357 2.52644L43.0136 1.93555L46.1541 3.3291L49.5723 3.57587L52.2929 5.69181L55.5547 6.76173L57.6963 9.4771L60.6105 11.307L62.0503 14.463L64.4486 16.9478L65.1016 20.3633L66.8436 23.3579L66.6727 26.8316L67.6582 30.1626L66.6736 33.4936L66.8436 36.9672L65.1016 39.9627L64.4486 43.3765L62.0503 45.8614L60.6113 49.0182L57.6963 50.8489L55.5547 53.5643L52.2929 54.6334L49.5723 56.7493L46.1541 56.9961L43.0136 58.3896L39.6357 57.7987Z" stroke="black" stroke-width="0.5"/>
</svg>
