<svg width="41" height="31" viewBox="0 0 41 31" fill="none" xmlns="http://www.w3.org/2000/svg">
<path fill-rule="evenodd" clip-rule="evenodd" d="M25.1029 24.2264L30.7793 10.3457L25.6808 24.4491C25.667 24.4874 25.6458 24.5225 25.6184 24.5525C25.591 24.5826 25.5579 24.6069 25.5211 24.6242C25.4843 24.6415 25.4445 24.6513 25.4038 24.6532C25.3632 24.655 25.3227 24.6489 25.2844 24.635C25.2462 24.6212 25.211 24.6 25.181 24.5726C25.151 24.5452 25.1266 24.5122 25.1094 24.4754C25.0921 24.4385 25.0823 24.3987 25.0804 24.3581C25.0785 24.3175 25.0847 24.2769 25.0985 24.2387L25.1029 24.2264Z" fill="#010202"/>
<path d="M17.8126 24.7786C17.8126 24.7786 12.8566 23.5525 11.0906 21.5411C9.3255 19.5286 6.47845 16.6835 6.72386 4.66238C6.72386 4.66238 8.58878 2.74927 18.4996 8.09714M25.5107 24.0099C25.2157 24.7462 26.153 30.0773 26.153 30.0773C26.153 30.0773 22.3263 27.5755 20.4132 22.9634C18.4991 18.3512 19.2358 17.4193 19.3829 14.7207C19.5294 12.0217 22.014 7.81091 23.4796 6.40435C24.5355 5.39025 28.0706 2.72566 29.9896 1.29599C30.153 1.1745 30.3394 1.08758 30.5375 1.04054C30.7357 0.993498 30.9413 0.987325 31.1418 1.02239C31.3424 1.05747 31.5337 1.13304 31.7041 1.24451C31.8745 1.35599 32.0204 1.50101 32.1329 1.67074C34.3568 4.99533 35.6286 8.90664 35.5455 12.906C35.4963 15.278 34.9725 17.6696 33.4278 19.2517C33.4278 19.2517 29.7845 22.7671 26.8401 23.1104C23.8966 23.4537 25.8496 28.8271 25.8496 28.8271L25.5107 24.0099Z" stroke="#010202" stroke-width="0.5" stroke-linecap="round" stroke-linejoin="round"/>
<path fill-rule="evenodd" clip-rule="evenodd" d="M12.6198 9.99687C13.3481 10.7186 14.0439 11.4725 14.705 12.2562C15.0365 12.6482 15.3882 13.0298 15.6498 13.4808C15.8898 13.9333 16.1731 14.4133 16.1652 14.9641C16.1651 14.969 16.1634 14.9738 16.1603 14.9776C16.1572 14.9815 16.1529 14.9842 16.1481 14.9853C16.1433 14.9865 16.1383 14.9859 16.1338 14.9839C16.1293 14.9818 16.1257 14.9783 16.1234 14.9739L16.1219 14.97C15.8898 14.517 15.5834 14.129 15.2809 13.7257C14.9814 13.3224 14.7159 12.8906 14.4257 12.4731C13.8293 11.6451 13.2162 10.8291 12.5868 10.0259C12.585 10.0236 12.5837 10.021 12.5829 10.0182C12.5821 10.0154 12.5818 10.0124 12.5822 10.0096C12.5826 10.0067 12.5835 10.0039 12.585 10.0014C12.5865 9.99883 12.5884 9.99664 12.5908 9.9949C12.595 9.99157 12.6003 9.98992 12.6057 9.99028C12.611 9.99065 12.6161 9.993 12.6198 9.99687" fill="#010202"/>
</svg>
