<svg width="78" height="60" viewBox="0 0 78 60" fill="none" xmlns="http://www.w3.org/2000/svg">
<path fill-rule="evenodd" clip-rule="evenodd" d="M47.2161 46.8892L58.2027 20.0234L48.3346 47.3204C48.3078 47.3944 48.2668 47.4624 48.2137 47.5206C48.1607 47.5787 48.0967 47.6258 48.0255 47.6592C47.9543 47.6926 47.8771 47.7117 47.7985 47.7153C47.7199 47.7189 47.6414 47.707 47.5674 47.6802C47.4934 47.6535 47.4254 47.6124 47.3672 47.5594C47.3091 47.5063 47.262 47.4424 47.2286 47.3711C47.1952 47.2999 47.1761 47.2228 47.1725 47.1442C47.1689 47.0656 47.1808 46.987 47.2076 46.913L47.2161 46.8892Z" fill="#010202"/>
<path d="M33.1041 47.9587C33.1041 47.9587 23.512 45.5856 20.0938 41.6925C16.6775 37.7974 11.1671 32.2908 11.6421 9.02403C11.6421 9.02403 15.2516 5.32123 34.4338 15.6719M48.0038 46.4709C47.4327 47.8958 49.2469 58.2142 49.2469 58.2142C49.2469 58.2142 41.8404 53.372 38.1376 44.4453C34.4329 35.5186 35.8588 33.7148 36.1434 28.4918C36.4271 23.2679 41.2359 15.1179 44.0725 12.3956C46.1162 10.4328 52.9583 5.27553 56.6725 2.50843C56.9888 2.27328 57.3496 2.10505 57.7331 2.01401C58.1165 1.92296 58.5145 1.91101 58.9027 1.97889C59.2909 2.04677 59.6612 2.19305 59.991 2.4088C60.3208 2.62455 60.6031 2.90525 60.8208 3.23376C65.1252 9.66845 67.5868 17.2387 67.4259 24.9794C67.3307 29.5703 66.317 34.1993 63.3271 37.2615C63.3271 37.2615 56.2756 44.0655 50.5767 44.7299C44.8797 45.3943 48.6596 55.7945 48.6596 55.7945L48.0038 46.4709Z" stroke="#010202" stroke-width="0.5" stroke-linecap="round" stroke-linejoin="round"/>
<path fill-rule="evenodd" clip-rule="evenodd" d="M23.0555 19.3468C24.4651 20.7438 25.8118 22.2029 27.0915 23.7197C27.733 24.4784 28.4136 25.2171 28.92 26.0899C29.3845 26.9657 29.9328 27.8947 29.9176 28.9608C29.9175 28.9703 29.9141 28.9796 29.9082 28.987C29.9022 28.9945 29.8939 28.9997 29.8846 29.0019C29.8753 29.0041 29.8655 29.0031 29.8568 28.9991C29.8481 28.9951 29.8411 28.9883 29.8367 28.9798L29.8338 28.9722C29.3845 28.0955 28.7915 27.3445 28.2061 26.564C27.6264 25.7834 27.1124 24.9477 26.5508 24.1395C25.3965 22.5369 24.2099 20.9577 22.9917 19.403C22.9882 19.3986 22.9856 19.3935 22.984 19.3881C22.9825 19.3827 22.982 19.377 22.9828 19.3714C22.9835 19.3658 22.9853 19.3604 22.9882 19.3555C22.991 19.3506 22.9948 19.3464 22.9993 19.343C23.0075 19.3366 23.0178 19.3334 23.0282 19.3341C23.0385 19.3348 23.0483 19.3393 23.0555 19.3468Z" fill="#010202"/>
</svg>
