<svg width="41" height="31" viewBox="0 0 41 31" fill="none" xmlns="http://www.w3.org/2000/svg">
<g clip-path="url(#clip0_249_22414)">
<mask id="mask0_249_22414" style="mask-type:alpha" maskUnits="userSpaceOnUse" x="0" y="7" width="37" height="23">
<path d="M0.708984 7.03125H36.6581V29.6787H0.708984V7.03125Z" fill="white"/>
</mask>
<g mask="url(#mask0_249_22414)">
<path fill-rule="evenodd" clip-rule="evenodd" d="M0.739493 21.7912C1.91407 23.5587 3.36017 25.2509 5.05644 26.5683C5.90559 27.2298 6.82695 27.7988 7.81797 28.2056C8.81051 28.5936 9.87831 28.8315 10.9329 29.0263C13.0527 29.4 15.2356 29.428 17.3478 29.0349C19.4641 28.6612 21.4873 27.8741 23.3773 26.8566C25.2627 25.8178 27.0281 24.5619 28.5708 23.0619C30.1258 21.5746 31.4529 19.861 32.662 18.0737C33.8361 16.2651 35.0331 14.4331 35.8563 12.4587C36.0454 11.9624 36.2239 11.4544 36.2798 10.9434C36.3047 10.6892 36.3017 10.436 36.2392 10.2051C36.1756 9.96917 36.0398 9.80087 35.8476 9.58375C35.5547 9.19476 35.0508 8.92832 34.6085 8.63544C34.1508 8.35273 33.6825 8.0812 33.2112 7.81985L33.2092 7.81934L33.1873 7.80561C32.6702 7.46493 31.9598 7.33883 31.2998 7.35714C30.9703 7.37137 30.6124 7.39629 30.317 7.49443C30.006 7.60608 29.7148 7.76638 29.4541 7.96934C28.3832 8.79561 27.5483 9.93968 26.8202 11.0939L26.8253 11.0837L23.088 18.6529C21.6154 21.0895 19.4168 23.0665 16.8205 24.2075C15.5181 24.7705 14.1281 25.1042 12.712 25.1939C11.3014 25.2612 9.88773 25.172 8.49678 24.928C5.73526 24.4282 3.01085 23.3812 0.739493 21.7922V21.7912ZM0.708984 21.7571C3.07311 23.3025 5.73016 24.3445 8.51458 24.8182C9.89763 25.0495 11.3046 25.1273 12.7039 25.0485C14.1002 24.95 15.4688 24.6106 16.7493 24.0453C19.2968 22.9083 21.4578 20.9171 22.8764 18.5426L26.567 10.9571L26.5725 10.947C27.3149 9.75815 28.1376 8.60392 29.2675 7.71866C29.5541 7.49294 29.8751 7.31473 30.2183 7.19087C30.5849 7.07087 30.9292 7.05256 31.2912 7.03273C32.0076 7.01748 32.7398 7.11561 33.3942 7.53866L33.3714 7.52392C33.8509 7.78472 34.3241 8.057 34.7905 8.34053C35.2446 8.64256 35.7444 8.88307 36.1232 9.35748C36.2915 9.54103 36.5107 9.80748 36.5859 10.1034C36.6678 10.3983 36.6688 10.6953 36.6434 10.98C36.5824 11.551 36.3993 12.0793 36.2076 12.5954C35.3702 14.64 34.1864 16.4736 33.0159 18.3092C31.8108 20.1234 30.4751 21.8751 28.8866 23.3883C27.3149 24.9173 25.5129 26.2002 23.597 27.2568C19.7742 29.4097 15.1741 30.2004 10.877 29.3314C9.80356 29.1168 8.74441 28.8666 7.71729 28.4502C6.70441 28.018 5.77187 27.4231 4.92068 26.7387C3.23207 25.3417 1.80589 23.655 0.708984 21.7576" fill="#231F20"/>
</g>
<mask id="mask1_249_22414" style="mask-type:alpha" maskUnits="userSpaceOnUse" x="33" y="0" width="8" height="8">
<path d="M33.0176 0H40.4647V7.64237H33.0176V0Z" fill="white"/>
</mask>
<g mask="url(#mask1_249_22414)">
<path fill-rule="evenodd" clip-rule="evenodd" d="M33.0225 7.60616C33.6769 6.75955 34.3314 5.92667 34.8927 5.03684C35.4744 4.17294 35.9275 3.22006 36.4675 2.28294C36.7329 1.81616 37.0014 1.3504 37.3227 0.909042C37.4834 0.689381 37.6532 0.472771 37.8708 0.285143C38.0814 0.0817536 38.4119 -0.0189243 38.689 0.00294007C39.2686 0.0181943 39.7964 0.369042 40.0771 0.841923C40.3573 1.32091 40.4544 1.87006 40.4646 2.40294C40.4648 2.40596 40.4644 2.40899 40.4634 2.41185C40.4624 2.41471 40.4608 2.41734 40.4588 2.41957C40.4567 2.42181 40.4542 2.4236 40.4515 2.42485C40.4487 2.4261 40.4457 2.42678 40.4427 2.42684C40.4369 2.42685 40.4313 2.42465 40.4271 2.42068C40.4228 2.41672 40.4202 2.41128 40.4198 2.40548C40.3792 1.87819 40.2495 1.34836 39.9622 0.917177C39.6749 0.491076 39.1853 0.215482 38.687 0.231754C38.1663 0.194126 37.8642 0.655821 37.5658 1.07938C37.2775 1.51413 37.0319 1.98447 36.7898 2.45582C36.3083 3.38786 35.932 4.41853 35.2705 5.29616C34.6227 6.1626 33.9012 6.97108 33.0546 7.63921C33.0521 7.64099 33.0494 7.64227 33.0465 7.64297C33.0435 7.64368 33.0405 7.6438 33.0375 7.64333C33.0345 7.64285 33.0317 7.6418 33.0291 7.64022C33.0265 7.63864 33.0243 7.63657 33.0225 7.63413C33.0154 7.62599 33.0164 7.6143 33.0225 7.60616" fill="#231F20"/>
</g>
<path fill-rule="evenodd" clip-rule="evenodd" d="M35.6008 9.14368C35.6089 8.34283 35.7269 7.55927 35.8443 6.77571C35.974 5.99419 36.1921 5.22995 36.3996 4.46571C36.6021 3.69898 36.8302 2.93923 37.0835 2.18774C37.2157 1.81351 37.3581 1.44079 37.5264 1.07927C37.7104 0.740625 37.8533 0.312998 38.2565 0.14571C38.2688 0.142151 38.2815 0.146727 38.286 0.158422C38.2896 0.168591 38.286 0.181303 38.2749 0.18588L38.2647 0.191473C37.9291 0.358252 37.7999 0.78893 37.6525 1.13317C37.5152 1.49927 37.4033 1.87656 37.3016 2.25639C37.0942 3.01486 36.912 3.78003 36.7555 4.55063C36.5964 5.32249 36.4804 6.10198 36.2928 6.86724C36.094 7.63046 35.913 8.39774 35.6455 9.1508C35.6446 9.15373 35.6431 9.15646 35.6411 9.1588C35.6391 9.16115 35.6367 9.16306 35.6339 9.16444C35.6312 9.16582 35.6282 9.16663 35.6251 9.16681C35.622 9.167 35.6189 9.16657 35.616 9.16554C35.6069 9.163 35.6008 9.15283 35.6008 9.14368V9.14368ZM25.9642 16.9488C26.5143 15.3938 27.1733 13.876 27.9706 12.4203C28.3749 11.6962 28.7913 10.966 29.3562 10.334C29.9272 9.74469 30.634 9.10503 31.5116 9.07198C31.5243 9.07096 31.5345 9.08113 31.5355 9.09385C31.5355 9.10402 31.5269 9.11317 31.5177 9.11673C30.7464 9.40249 30.2059 10.0101 29.704 10.631C29.2143 11.2666 28.7277 11.9169 28.2869 12.6059C27.4327 13.9981 26.6771 15.4635 26.0064 16.965C26.0054 16.9679 26.0038 16.9705 26.0017 16.9727C25.9997 16.9749 25.9972 16.9767 25.9945 16.9779C25.9917 16.9792 25.9887 16.9798 25.9857 16.9799C25.9827 16.9799 25.9797 16.9794 25.9769 16.9783C25.9715 16.9758 25.9672 16.9714 25.9648 16.966C25.9625 16.9605 25.9623 16.9544 25.9642 16.9488" fill="#231F20"/>
</g>
<defs>
<clipPath id="clip0_249_22414">
<rect width="40" height="31" fill="white" transform="translate(0.708984)"/>
</clipPath>
</defs>
</svg>
