<svg width="78" height="60" viewBox="0 0 78 60" fill="none" xmlns="http://www.w3.org/2000/svg">
<mask id="mask0_249_22435" style="mask-type:alpha" maskUnits="userSpaceOnUse" x="0" y="13" width="70" height="45">
<path d="M0 13.6113H69.579V57.4451H0V13.6113Z" fill="white"/>
</mask>
<g mask="url(#mask0_249_22435)">
<path fill-rule="evenodd" clip-rule="evenodd" d="M0.0590487 42.179C2.33242 45.5999 5.13133 48.8751 8.41443 51.425C10.058 52.7054 11.8412 53.8066 13.7593 54.594C15.6804 55.3449 17.7471 55.8054 19.7882 56.1824C23.8911 56.9057 28.116 56.9598 32.2042 56.1991C36.3002 55.4757 40.2161 53.9523 43.8741 51.983C47.5233 49.9724 50.9403 47.5416 53.9262 44.6384C56.9357 41.7597 59.5043 38.4432 61.8446 34.9839C64.117 31.4833 66.4337 27.9374 68.027 24.116C68.3931 23.1555 68.7385 22.1723 68.8468 21.1832C68.895 20.6912 68.8891 20.2011 68.7681 19.7543C68.6451 19.2976 68.3823 18.9719 68.0103 18.5516C67.4434 17.7988 66.4681 17.2831 65.6119 16.7162C64.7262 16.169 63.8198 15.6435 62.9075 15.1376L62.9036 15.1367L62.8612 15.1101C61.8604 14.4507 60.4855 14.2066 59.2081 14.2421C58.5704 14.2696 57.8775 14.3179 57.3057 14.5078C56.7039 14.7239 56.1402 15.0342 55.6357 15.427C53.563 17.0262 51.9471 19.2405 50.5378 21.4746L50.5476 21.4549L43.3142 36.1048C40.4641 40.8209 36.2086 44.6472 31.1836 46.8556C28.6628 47.9454 25.9725 48.5913 23.2317 48.7649C20.5015 48.8951 17.7653 48.7225 15.0732 48.2502C9.72827 47.2827 4.45522 45.2564 0.0590487 42.1809V42.179ZM0 42.113C4.57573 45.1041 9.7184 47.1209 15.1076 48.0376C17.7845 48.4854 20.5076 48.6359 23.216 48.4834C25.9184 48.2928 28.5675 47.6359 31.0458 46.5417C35.9764 44.3411 40.159 40.4872 42.9048 35.8913L50.0477 21.2098L50.0585 21.1901C51.4954 18.8892 53.0877 16.6552 55.2745 14.9418C55.8292 14.5049 56.4506 14.16 57.1148 13.9203C57.8244 13.688 58.4907 13.6526 59.1914 13.6142C60.578 13.5847 61.9952 13.7746 63.2618 14.5934L63.2175 14.5649C64.1456 15.0697 65.0614 15.5967 65.9642 16.1454C66.8431 16.73 67.8105 17.1955 68.5437 18.1137C68.8694 18.469 69.2936 18.9847 69.4393 19.5574C69.5977 20.1282 69.5997 20.703 69.5505 21.2541C69.4324 22.3593 69.0781 23.3818 68.7071 24.3807C67.0862 28.338 64.7951 31.8868 62.5296 35.4396C60.1972 38.951 57.6118 42.3414 54.5373 45.2702C51.4954 48.2295 48.0075 50.7125 44.2993 52.7575C36.9005 56.9244 27.9969 58.4548 19.6799 56.7729C17.6024 56.3575 15.5524 55.8733 13.5645 55.0673C11.604 54.2308 9.79913 53.0794 8.15167 51.7547C4.8834 49.0508 2.12304 45.7863 0 42.114" fill="#231F20"/>
</g>
<mask id="mask1_249_22435" style="mask-type:alpha" maskUnits="userSpaceOnUse" x="62" y="0" width="15" height="15">
<path d="M62.5352 0H76.9489V14.7917H62.5352V0Z" fill="white"/>
</mask>
<g mask="url(#mask1_249_22435)">
<path fill-rule="evenodd" clip-rule="evenodd" d="M62.5448 14.7196C63.8114 13.081 65.078 11.469 66.1644 9.74677C67.2903 8.0747 68.1672 6.23042 69.2123 4.41664C69.7261 3.5132 70.2457 2.61172 70.8677 1.75748C71.1787 1.33233 71.5074 0.913087 71.9286 0.549937C72.336 0.15628 72.9757 -0.0385809 73.5121 0.00373734C74.634 0.0332617 75.6555 0.712321 76.1988 1.62758C76.7411 2.55464 76.929 3.61752 76.9487 4.6489C76.9491 4.65475 76.9483 4.66061 76.9464 4.66615C76.9444 4.67168 76.9414 4.67676 76.9375 4.68109C76.9335 4.68541 76.9287 4.68889 76.9234 4.69131C76.918 4.69373 76.9122 4.69503 76.9064 4.69515C76.8951 4.69518 76.8843 4.69092 76.8761 4.68324C76.8678 4.67557 76.8629 4.66505 76.8621 4.65382C76.7834 3.63326 76.5324 2.60778 75.9764 1.77323C75.4203 0.948516 74.4726 0.41511 73.5081 0.446602C72.5004 0.373776 71.9158 1.26738 71.3381 2.08717C70.7801 2.92861 70.3047 3.83895 69.8363 4.75125C68.9043 6.55519 68.176 8.55005 66.8957 10.2487C65.6419 11.9257 64.2454 13.4905 62.6068 14.7836C62.6021 14.7871 62.5967 14.7895 62.591 14.7909C62.5854 14.7923 62.5795 14.7925 62.5737 14.7916C62.568 14.7907 62.5624 14.7886 62.5575 14.7856C62.5525 14.7825 62.5482 14.7785 62.5448 14.7738C62.531 14.758 62.533 14.7354 62.5448 14.7196Z" fill="#231F20"/>
</g>
<path fill-rule="evenodd" clip-rule="evenodd" d="M67.5349 17.697C67.5506 16.147 67.7789 14.6304 68.0063 13.1138C68.2572 11.6012 68.6794 10.122 69.0809 8.64287C69.4729 7.15887 69.9144 5.68839 70.4046 4.2339C70.6605 3.50957 70.9361 2.78819 71.2618 2.08847C71.6181 1.43303 71.8946 0.605362 72.675 0.281578C72.6987 0.274689 72.7233 0.283547 72.7321 0.306182C72.739 0.325865 72.7321 0.350468 72.7105 0.359326L72.6908 0.370151C72.0412 0.692951 71.7913 1.52652 71.5059 2.19279C71.2402 2.90137 71.0236 3.63161 70.8268 4.36676C70.4253 5.83477 70.0728 7.31575 69.7698 8.80722C69.4618 10.3012 69.2374 11.8098 68.8743 13.291C68.4895 14.7682 68.1391 16.2533 67.6215 17.7108C67.6197 17.7165 67.6168 17.7217 67.6129 17.7263C67.6091 17.7308 67.6043 17.7345 67.599 17.7372C67.5937 17.7399 67.5878 17.7414 67.5819 17.7418C67.576 17.7421 67.57 17.7413 67.5644 17.7393C67.5467 17.7344 67.5349 17.7147 67.5349 17.697ZM48.8834 32.8036C49.9482 29.7941 51.2236 26.8564 52.7668 24.0388C53.5492 22.6374 54.3552 21.2242 55.4486 20.0009C56.5538 18.8603 57.9217 17.6222 59.6204 17.5582C59.645 17.5563 59.6647 17.5759 59.6666 17.6006C59.6666 17.6202 59.6499 17.638 59.6322 17.6448C58.1392 18.1979 57.0931 19.374 56.1217 20.5756C55.174 21.8058 54.2322 23.0645 53.3789 24.398C51.7256 27.0926 50.2631 29.9289 48.965 32.8351C48.9631 32.8406 48.96 32.8457 48.9561 32.85C48.9521 32.8543 48.9473 32.8577 48.942 32.8601C48.9366 32.8625 48.9309 32.8638 48.925 32.8639C48.9192 32.864 48.9134 32.8629 48.908 32.8607C48.8975 32.8559 48.8892 32.8475 48.8846 32.8369C48.8801 32.8264 48.8796 32.8145 48.8834 32.8036Z" fill="#231F20"/>
</svg>
