<svg width="41" height="31" viewBox="0 0 41 31" fill="none" xmlns="http://www.w3.org/2000/svg">
<path fill-rule="evenodd" clip-rule="evenodd" d="M23.713 21.9304L17.1465 12.9004L24.103 21.6357C24.183 21.7349 24.1617 21.8836 24.0552 21.9674C23.9491 22.0508 23.7987 22.0376 23.7191 21.9388C23.7168 21.9362 23.7148 21.9334 23.713 21.9304" fill="#010202"/>
<path d="M23.7566 21.5735C24.12 22.0376 24.4548 26.1132 24.4548 26.1132C24.4548 26.1132 26.8374 23.4185 27.3748 19.6398C27.9113 15.8612 27.1792 15.356 26.5435 13.4369C25.9079 11.5178 23.2261 9.04367 21.8539 8.36425C20.8644 7.87455 17.6957 6.76102 15.9792 6.1694C15.3609 5.95764 14.664 6.30705 14.4444 6.93528C13.4253 9.85499 13.2318 12.9781 14.0722 15.8532C14.5709 17.5579 15.4283 19.1682 16.8948 19.957C16.8948 19.957 20.3105 21.66 22.5848 21.2294C24.8583 20.7988 24.44 25.1382 24.44 25.1382" stroke="#010202" stroke-width="0.5" stroke-linecap="round" stroke-linejoin="round"/>
<path fill-rule="evenodd" clip-rule="evenodd" d="M21.1872 29.8626L19.442 30.1679L17.8194 29.4479L16.0533 29.3204L14.6477 28.2272L12.9625 27.6744L11.8559 26.2715L10.3503 25.326L9.60638 23.6954L8.36725 22.4116L8.02985 20.6469L7.12985 19.0997L7.21811 17.305L6.70898 15.584L7.21768 13.8629L7.12985 12.0682L8.02985 10.5206L8.36725 8.75677L9.60638 7.47294L10.3499 5.84191L11.8559 4.89603L12.9625 3.49309L14.6477 2.94074L16.0533 1.8475L17.8194 1.72L19.442 1L21.1872 1.30529L22.9325 1L24.5551 1.72L26.3212 1.8475L27.7268 2.94074L29.412 3.49353L30.5185 4.89647L32.0242 5.84191L32.7681 7.4725L34.0072 8.75632L34.3446 10.521L35.2446 12.0682L35.1564 13.8629L35.6655 15.584L35.1568 17.305L35.2446 19.0997L34.3446 20.6474L34.0072 22.4112L32.7681 23.695L32.0246 25.326L30.5185 26.2719L29.412 27.6749L27.7268 28.2272L26.3212 29.3204L24.5551 29.4479L22.9325 30.1679L21.1872 29.8626Z" stroke="black" stroke-width="0.5"/>
</svg>
