<svg width="33" height="33" viewBox="0 0 33 33" fill="none" xmlns="http://www.w3.org/2000/svg">
<path d="M12.1335 0.5C5.71703 0.5 0.5 5.70981 0.5 12.1181C0.5 18.5263 5.71703 23.7361 12.1335 23.7361C15.1963 23.7361 17.971 22.5387 20.0406 20.6352L31.7981 32.3761C31.8806 32.4587 32.0045 32.5 32.0871 32.5C32.1697 32.5 32.2935 32.4587 32.3761 32.3761C32.5413 32.211 32.5413 31.9622 32.3761 31.7981L20.6197 20.0128C22.5655 17.9452 23.7248 15.1756 23.7248 12.116C23.7671 5.70877 18.5501 0.5 12.1335 0.5ZM19.8745 19.6422C19.8332 19.6422 19.7919 19.6835 19.7506 19.7248C19.7083 19.7661 19.7083 19.8074 19.668 19.8486C17.656 21.8186 14.9494 22.9173 12.1335 22.9072C6.17123 22.9072 1.32787 18.0711 1.32787 12.1181C1.32787 6.164 6.17123 1.32581 12.1335 1.32581C18.0938 1.32581 22.9392 6.16193 22.9392 12.117C22.9462 14.9301 21.8452 17.6328 19.8745 19.6401V19.6422Z" fill="black"/>
</svg>
